<svg xmlns="http://www.w3.org/2000/svg" viewBox="0 0 730 504.48"><defs><style>.a{fill:#fff;}</style></defs><title>logo</title><polygon class="a" points="413.29 0 296.52 193.16 109.63 502.32 0 502.32 291.85 19.57 303.05 1.03 303.66 0 413.29 0"/><path class="a" d="M1382,574.39q0,105.5-63.65,182.93-44.24,54.4-116.46,68.28a.47.47,0,0,1-.26,0c-6.73,1.28-13.66,2.31-20.75,3.08-6.68.72-13.51,1.18-20.5,1.44q-19.58.69-107.47.72-16.48,0-49.68-1.08c-22.09-.72-38.68-1.08-49.67-1.08H871l75.62-125.09,111-183.55a43.71,43.71,0,0,0,0,6.32V741.5h119.75q44.63-10.86,74.24-44.13,41.54-46.85,41.5-123.5c0-23.11-3.39-44.23-10.32-63.29a.37.37,0,0,0,0-.25A151.4,151.4,0,0,0,1248,455.05a145.62,145.62,0,0,0-27.69-22.86c0-.1,0-.1-.1-.1q-38.76-24.82-92.73-24.82h-1.74l47.46-78.49q55.33,6.86,93.35,26.56h0c.05.05.05.1.15.1A175.41,175.41,0,0,1,1291.38,371q26.2,19.89,45.52,49.63c0,.05.1.1.1.15a260,260,0,0,1,21.42,40.64,287.81,287.81,0,0,1,20.45,71.1c0,.1.05.21,0,.31A273.76,273.76,0,0,1,1382,574.39Z" transform="translate(-652 -326.41)"/></svg>