<svg xmlns="http://www.w3.org/2000/svg" viewBox="0 0 730 504.43"><title>logo-black</title><polygon points="413.29 0 296.52 193.16 109.63 502.32 0 502.32 291.85 19.57 303.05 1.03 303.66 0 413.29 0"/><path d="M730,248q0,105.5-63.65,182.93-44.24,54.4-116.46,68.28a.57.57,0,0,1-.26,0c-6.73,1.28-13.66,2.31-20.75,3.08-6.68.72-13.51,1.18-20.5,1.44q-19.58.69-107.47.72-16.49,0-49.68-1.08c-22.09-.72-38.68-1.08-49.67-1.08H219l75.62-125.09,111-183.55a44.44,44.44,0,0,0,0,6.32V415.09H525.37Q570,404.23,599.61,371q41.53-46.84,41.5-123.5c0-23.11-3.39-44.23-10.32-63.29a.36.36,0,0,0,0-.25A151.48,151.48,0,0,0,596,128.64a145.68,145.68,0,0,0-27.69-22.86c0-.1,0-.1-.1-.1q-38.76-24.83-92.73-24.82h-1.74L521.2,2.37q55.34,6.86,93.35,26.56h0c.05.05.05.1.15.1a175.72,175.72,0,0,1,24.68,15.56A194.62,194.62,0,0,1,684.9,94.22s.1.1.1.15A260,260,0,0,1,706.42,135a287.7,287.7,0,0,1,20.45,71.1c0,.1,0,.21,0,.31A274,274,0,0,1,730,248Z"/></svg>